<svg width="16" height="17" viewBox="0 0 16 17" fill="none" xmlns="http://www.w3.org/2000/svg">
<path d="M1.5 0.209961C1.20333 0.209961 0.913319 0.31771 0.666645 0.519582C0.419972 0.721454 0.227713 1.00838 0.114181 1.34408C0.000649929 1.67978 -0.0290551 2.04918 0.0288228 2.40556C0.0867006 2.76193 0.229562 3.08929 0.439341 3.34622C0.649119 3.60316 0.916394 3.77813 1.20737 3.84902C1.49834 3.91991 1.79994 3.88353 2.07403 3.74447C2.34812 3.60542 2.58238 3.36995 2.74721 3.06782C2.91203 2.7657 3 2.4105 3 2.04714C3 1.55989 2.84197 1.0926 2.56066 0.748059C2.27936 0.40352 1.89783 0.209961 1.5 0.209961ZM1.5 6.33389C1.20333 6.33389 0.913319 6.44164 0.666645 6.64351C0.419972 6.84539 0.227713 7.13232 0.114181 7.46802C0.000649929 7.80372 -0.0290551 8.17311 0.0288228 8.52949C0.0867006 8.88587 0.229562 9.21322 0.439341 9.47016C0.649119 9.72709 0.916394 9.90207 1.20737 9.97295C1.49834 10.0438 1.79994 10.0075 2.07403 9.86841C2.34812 9.72936 2.58238 9.49388 2.74721 9.19176C2.91203 8.88963 3 8.53443 3 8.17107C3 7.68382 2.84197 7.21653 2.56066 6.87199C2.27936 6.52745 1.89783 6.33389 1.5 6.33389ZM1.5 12.4578C1.20333 12.4578 0.913319 12.5656 0.666645 12.7674C0.419972 12.9693 0.227713 13.2562 0.114181 13.5919C0.000649929 13.9276 -0.0290551 14.297 0.0288228 14.6534C0.0867006 15.0098 0.229562 15.3372 0.439341 15.5941C0.649119 15.851 0.916394 16.026 1.20737 16.0969C1.49834 16.1678 1.79994 16.1314 2.07403 15.9923C2.34812 15.8533 2.58238 15.6178 2.74721 15.3157C2.91203 15.0136 3 14.6584 3 14.295C3 13.8078 2.84197 13.3405 2.56066 12.9959C2.27936 12.6514 1.89783 12.4578 1.5 12.4578ZM15.5 13.0702H5.5C5.36739 13.0702 5.24022 13.1347 5.14645 13.2496C5.05268 13.3644 5 13.5202 5 13.6826V14.9074C5 15.0698 5.05268 15.2256 5.14645 15.3404C5.24022 15.4553 5.36739 15.5198 5.5 15.5198H15.5C15.6326 15.5198 15.7598 15.4553 15.8536 15.3404C15.9473 15.2256 16 15.0698 16 14.9074V13.6826C16 13.5202 15.9473 13.3644 15.8536 13.2496C15.7598 13.1347 15.6326 13.0702 15.5 13.0702ZM15.5 0.822354H5.5C5.36739 0.822354 5.24022 0.886874 5.14645 1.00172C5.05268 1.11657 5 1.27233 5 1.43475V2.65953C5 2.82195 5.05268 2.97772 5.14645 3.09256C5.24022 3.20741 5.36739 3.27193 5.5 3.27193H15.5C15.6326 3.27193 15.7598 3.20741 15.8536 3.09256C15.9473 2.97772 16 2.82195 16 2.65953V1.43475C16 1.27233 15.9473 1.11657 15.8536 1.00172C15.7598 0.886874 15.6326 0.822354 15.5 0.822354V0.822354ZM15.5 6.94629H5.5C5.36739 6.94629 5.24022 7.01081 5.14645 7.12565C5.05268 7.2405 5 7.39626 5 7.55868V8.78347C5 8.94588 5.05268 9.10165 5.14645 9.2165C5.24022 9.33134 5.36739 9.39586 5.5 9.39586H15.5C15.6326 9.39586 15.7598 9.33134 15.8536 9.2165C15.9473 9.10165 16 8.94588 16 8.78347V7.55868C16 7.39626 15.9473 7.2405 15.8536 7.12565C15.7598 7.01081 15.6326 6.94629 15.5 6.94629Z" fill="#7E7E7E"/>
</svg>
