<svg width="14" height="21" viewBox="0 0 14 21" fill="none" xmlns="http://www.w3.org/2000/svg">
<path d="M12.0503 0.542969H2.93719C1.85907 0.542969 0.984375 1.37873 0.984375 2.40885V18.5799C0.984375 19.61 1.85907 20.4458 2.93719 20.4458H12.0503C13.1284 20.4458 14.0031 19.61 14.0031 18.5799V2.40885C14.0031 1.37873 13.1284 0.542969 12.0503 0.542969ZM7.49374 19.2018C6.77365 19.2018 6.19187 18.646 6.19187 17.9579C6.19187 17.2699 6.77365 16.714 7.49374 16.714C8.21384 16.714 8.79562 17.2699 8.79562 17.9579C8.79562 18.646 8.21384 19.2018 7.49374 19.2018ZM12.0503 15.0036C12.0503 15.2601 11.8306 15.4701 11.5621 15.4701H3.42539C3.15688 15.4701 2.93719 15.2601 2.93719 15.0036V2.87533C2.93719 2.61877 3.15688 2.40885 3.42539 2.40885H11.5621C11.8306 2.40885 12.0503 2.61877 12.0503 2.87533V15.0036Z" fill="#7E7E7E"/>
</svg>
