<svg width="18" height="19" viewBox="0 0 18 19" fill="none" xmlns="http://www.w3.org/2000/svg">
<path d="M17.5914 4.43735L15.6947 0.812866C15.5252 0.487503 15.2242 0.288086 14.9027 0.288086H3.09613C2.77466 0.288086 2.47365 0.487503 2.30415 0.812866L0.407495 4.43735C-0.571518 6.30907 0.296443 8.91198 2.12588 9.20935C2.25739 9.23034 2.39182 9.24084 2.52625 9.24084C3.39129 9.24084 4.15697 8.78603 4.683 8.08283C5.20904 8.78603 5.97764 9.24084 6.83976 9.24084C7.70479 9.24084 8.47047 8.78603 8.99651 8.08283C9.52254 8.78603 10.2911 9.24084 11.1533 9.24084C12.0183 9.24084 12.784 8.78603 13.31 8.08283C13.839 8.78603 14.6046 9.24084 15.4668 9.24084C15.6041 9.24084 15.7356 9.23034 15.8671 9.20935C17.7024 8.91548 18.5733 6.31257 17.5914 4.43735V4.43735ZM15.4726 10.3639C15.1804 10.3639 14.891 10.3114 14.6105 10.2309V13.7225H3.38837V10.2309C3.10782 10.3079 2.8185 10.3639 2.52625 10.3639C2.35091 10.3639 2.17264 10.3499 2.00022 10.3219C1.83656 10.2939 1.67583 10.2484 1.52094 10.1959V17.0811C1.52094 17.7003 1.93885 18.2006 2.45612 18.2006H15.5486C16.0659 18.2006 16.4838 17.7003 16.4838 17.0811V10.1959C16.326 10.2519 16.1681 10.2974 16.0045 10.3219C15.8262 10.3499 15.6509 10.3639 15.4726 10.3639Z" fill="#9356DC"/>
</svg>
